<svg xmlns="http://www.w3.org/2000/svg" xmlns:xlink="http://www.w3.org/1999/xlink" viewBox="0 0 214 70.7" enable-background="new 0 0 214 70.7"><style type="text/css">.st0{fill:#FFFFFF;} .st1{clip-path:url(#SVGID_2_);fill:#674E8D;} .st2{clip-path:url(#SVGID_2_);fill:#674E8C;} .st3{clip-path:url(#SVGID_2_);fill:#684E8C;} .st4{clip-path:url(#SVGID_2_);fill:#694D8B;} .st5{clip-path:url(#SVGID_2_);fill:#6A4C8A;} .st6{clip-path:url(#SVGID_2_);fill:#6B4C8A;} .st7{clip-path:url(#SVGID_2_);fill:#6B4B89;} .st8{clip-path:url(#SVGID_2_);fill:#6C4B89;} .st9{clip-path:url(#SVGID_2_);fill:#6D4A88;} .st10{clip-path:url(#SVGID_2_);fill:#6F4987;} .st11{clip-path:url(#SVGID_2_);fill:#704987;} .st12{clip-path:url(#SVGID_2_);fill:#704986;} .st13{clip-path:url(#SVGID_2_);fill:#714986;} .st14{clip-path:url(#SVGID_2_);fill:#724885;} .st15{clip-path:url(#SVGID_2_);fill:#734784;} .st16{clip-path:url(#SVGID_2_);fill:#744784;} .st17{clip-path:url(#SVGID_2_);fill:#754683;} .st18{clip-path:url(#SVGID_2_);fill:#764682;} .st19{clip-path:url(#SVGID_2_);fill:#774582;} .st20{clip-path:url(#SVGID_2_);fill:#784581;} .st21{clip-path:url(#SVGID_2_);fill:#784481;} .st22{clip-path:url(#SVGID_2_);fill:#794480;} .st23{clip-path:url(#SVGID_2_);fill:#7A4380;} .st24{clip-path:url(#SVGID_2_);fill:#7B4380;} .st25{clip-path:url(#SVGID_2_);fill:#7B4280;} .st26{clip-path:url(#SVGID_2_);fill:#7C427F;} .st27{clip-path:url(#SVGID_2_);fill:#7D417F;} .st28{clip-path:url(#SVGID_2_);fill:#7E417E;} .st29{clip-path:url(#SVGID_2_);fill:#7E407E;} .st30{clip-path:url(#SVGID_2_);fill:#7F407D;} .st31{clip-path:url(#SVGID_2_);fill:#803F7D;} .st32{clip-path:url(#SVGID_2_);fill:#803F7C;} .st33{clip-path:url(#SVGID_2_);fill:#803E7C;} .st34{clip-path:url(#SVGID_2_);fill:#813E7B;} .st35{clip-path:url(#SVGID_2_);fill:#823E7B;} .st36{clip-path:url(#SVGID_2_);fill:#833D7A;} .st37{clip-path:url(#SVGID_2_);fill:#843D7A;} .st38{clip-path:url(#SVGID_2_);fill:#843D79;} .st39{clip-path:url(#SVGID_2_);fill:#853D79;} .st40{clip-path:url(#SVGID_2_);fill:#863C78;} .st41{clip-path:url(#SVGID_4_);fill:#8F3773;} .st42{clip-path:url(#SVGID_4_);fill:#903673;} .st43{clip-path:url(#SVGID_4_);fill:#913672;} .st44{clip-path:url(#SVGID_4_);fill:#923572;} .st45{clip-path:url(#SVGID_4_);fill:#933571;} .st46{clip-path:url(#SVGID_4_);fill:#933471;} .st47{clip-path:url(#SVGID_4_);fill:#943470;} .st48{clip-path:url(#SVGID_4_);fill:#953370;} .st49{clip-path:url(#SVGID_4_);fill:#96336F;} .st50{clip-path:url(#SVGID_4_);fill:#97336F;} .st51{clip-path:url(#SVGID_4_);fill:#97336E;} .st52{clip-path:url(#SVGID_4_);fill:#98326E;} .st53{clip-path:url(#SVGID_4_);fill:#99326D;} .st54{clip-path:url(#SVGID_4_);fill:#9A316D;} .st55{clip-path:url(#SVGID_4_);fill:#9B316C;} .st56{clip-path:url(#SVGID_4_);fill:#8A3A76;} .st57{clip-path:url(#SVGID_4_);fill:#8A3975;} .st58{clip-path:url(#SVGID_4_);fill:#8B3975;} .st59{clip-path:url(#SVGID_4_);fill:#8C3874;} .st60{clip-path:url(#SVGID_4_);fill:#8D3874;} .st61{clip-path:url(#SVGID_4_);fill:#8E3773;} .st62{clip-path:url(#SVGID_4_);fill:#9B306C;} .st63{clip-path:url(#SVGID_4_);fill:#9C306B;} .st64{clip-path:url(#SVGID_4_);fill:#9D306B;} .st65{clip-path:url(#SVGID_4_);fill:#9E2F6A;} .st66{clip-path:url(#SVGID_4_);fill:#9F2F6A;} .st67{clip-path:url(#SVGID_4_);fill:#A02E69;} .st68{clip-path:url(#SVGID_4_);fill:#A12D68;} .st69{clip-path:url(#SVGID_6_);fill:#A32C67;} .st70{clip-path:url(#SVGID_6_);fill:#A42C67;} .st71{clip-path:url(#SVGID_6_);fill:#A52B66;} .st72{clip-path:url(#SVGID_6_);fill:#A62A65;} .st73{clip-path:url(#SVGID_6_);fill:#A72A65;} .st74{clip-path:url(#SVGID_6_);fill:#A82A64;} .st75{clip-path:url(#SVGID_6_);fill:#A92A64;} .st76{clip-path:url(#SVGID_6_);fill:#AA2963;} .st77{clip-path:url(#SVGID_6_);fill:#AB2963;} .st78{clip-path:url(#SVGID_6_);fill:#AB2962;} .st79{clip-path:url(#SVGID_6_);fill:#AC2862;} .st80{clip-path:url(#SVGID_6_);fill:#AD2861;} .st81{clip-path:url(#SVGID_6_);fill:#AE2761;} .st82{clip-path:url(#SVGID_6_);fill:#AF2760;} .st83{clip-path:url(#SVGID_6_);fill:#B02660;} .st84{clip-path:url(#SVGID_6_);fill:#B0265F;} .st85{clip-path:url(#SVGID_6_);fill:#B1255F;} .st86{clip-path:url(#SVGID_6_);fill:#B2255F;} .st87{clip-path:url(#SVGID_6_);fill:#B3245F;} .st88{clip-path:url(#SVGID_6_);fill:#B4245E;} .st89{clip-path:url(#SVGID_6_);fill:#B5235E;} .st90{clip-path:url(#SVGID_6_);fill:#B6235D;} .st91{clip-path:url(#SVGID_6_);fill:#B7235C;} .st92{clip-path:url(#SVGID_6_);fill:#B8225C;} .st93{clip-path:url(#SVGID_6_);fill:#B9225B;} .st94{clip-path:url(#SVGID_6_);fill:#B9235A;} .st95{clip-path:url(#SVGID_6_);fill:#BA2359;} .st96{clip-path:url(#SVGID_6_);fill:#BA2458;} .st97{clip-path:url(#SVGID_6_);fill:#BB2558;} .st98{clip-path:url(#SVGID_6_);fill:#BB2657;} .st99{clip-path:url(#SVGID_6_);fill:#BB2756;} .st100{clip-path:url(#SVGID_6_);fill:#BC2855;} .st101{clip-path:url(#SVGID_6_);fill:#BC2954;} .st102{clip-path:url(#SVGID_6_);fill:#BC2A53;} .st103{clip-path:url(#SVGID_6_);fill:#BD2A53;} .st104{clip-path:url(#SVGID_6_);fill:#BD2B53;} .st105{clip-path:url(#SVGID_6_);fill:#BE2C52;} .st106{clip-path:url(#SVGID_8_);fill:#BF304E;} .st107{clip-path:url(#SVGID_8_);fill:#BF314E;} .st108{clip-path:url(#SVGID_8_);fill:#C0324D;} .st109{clip-path:url(#SVGID_8_);fill:#C0334C;} .st110{clip-path:url(#SVGID_8_);fill:#C1334B;} .st111{clip-path:url(#SVGID_8_);fill:#C1344B;} .st112{clip-path:url(#SVGID_8_);fill:#C1354A;} .st113{clip-path:url(#SVGID_8_);fill:#C23649;} .st114{clip-path:url(#SVGID_8_);fill:#C23749;} .st115{clip-path:url(#SVGID_8_);fill:#C23848;} .st116{clip-path:url(#SVGID_8_);fill:#BE2D51;} .st117{clip-path:url(#SVGID_8_);fill:#BE2E50;} .st118{clip-path:url(#SVGID_8_);fill:#BF2F4F;} .st119{clip-path:url(#SVGID_8_);fill:#C33947;} .st120{clip-path:url(#SVGID_8_);fill:#C33A46;} .st121{clip-path:url(#SVGID_8_);fill:#C43B45;} .st122{clip-path:url(#SVGID_8_);fill:#C43C44;} .st123{clip-path:url(#SVGID_10_);fill:#C53F43;} .st124{clip-path:url(#SVGID_10_);fill:#C54042;} .st125{clip-path:url(#SVGID_10_);fill:#C64141;} .st126{clip-path:url(#SVGID_10_);fill:#C64240;} .st127{clip-path:url(#SVGID_10_);fill:#C7433F;} .st128{clip-path:url(#SVGID_10_);fill:#C7443F;} .st129{clip-path:url(#SVGID_10_);fill:#C7453F;} .st130{clip-path:url(#SVGID_10_);fill:#C8463E;} .st131{clip-path:url(#SVGID_10_);fill:#C8473D;} .st132{clip-path:url(#SVGID_10_);fill:#C8483C;} .st133{clip-path:url(#SVGID_10_);fill:#C9493B;} .st134{clip-path:url(#SVGID_10_);fill:#CA4A3A;} .st135{clip-path:url(#SVGID_10_);fill:#CA4B3A;} .st136{clip-path:url(#SVGID_10_);fill:#CA4C39;} .st137{clip-path:url(#SVGID_12_);fill:#CB4E37;} .st138{clip-path:url(#SVGID_12_);fill:#CC4F37;} .st139{clip-path:url(#SVGID_12_);fill:#CC5036;} .st140{clip-path:url(#SVGID_12_);fill:#CD5136;} .st141{clip-path:url(#SVGID_12_);fill:#CE5235;} .st142{clip-path:url(#SVGID_12_);fill:#CE5334;} .st143{clip-path:url(#SVGID_12_);fill:#CE5434;} .st144{clip-path:url(#SVGID_12_);fill:#CF5533;} .st145{clip-path:url(#SVGID_12_);fill:#CF5632;} .st146{clip-path:url(#SVGID_12_);fill:#CF5731;} .st147{clip-path:url(#SVGID_12_);fill:#D05831;} .st148{clip-path:url(#SVGID_12_);fill:#D05931;} .st149{clip-path:url(#SVGID_12_);fill:#D15930;} .st150{clip-path:url(#SVGID_12_);fill:#D15A2F;} .st151{clip-path:url(#SVGID_14_);fill:#486DAD;} .st152{clip-path:url(#SVGID_14_);fill:#486CAC;} .st153{clip-path:url(#SVGID_14_);fill:#496CAC;} .st154{clip-path:url(#SVGID_14_);fill:#496BAB;} .st155{clip-path:url(#SVGID_14_);fill:#496AAA;} .st156{clip-path:url(#SVGID_14_);fill:#4969A9;} .st157{clip-path:url(#SVGID_14_);fill:#4A69A9;} .st158{clip-path:url(#SVGID_14_);fill:#4A68A8;} .st159{clip-path:url(#SVGID_14_);fill:#4B67A7;} .st160{clip-path:url(#SVGID_14_);fill:#4B66A6;} .st161{clip-path:url(#SVGID_14_);fill:#4C66A6;} .st162{clip-path:url(#SVGID_14_);fill:#4C65A5;} .st163{clip-path:url(#SVGID_14_);fill:#4D65A4;} .st164{clip-path:url(#SVGID_14_);fill:#4D64A4;} .st165{clip-path:url(#SVGID_14_);fill:#4E64A3;} .st166{clip-path:url(#SVGID_14_);fill:#4E63A3;} .st167{clip-path:url(#SVGID_14_);fill:#4E63A2;} .st168{clip-path:url(#SVGID_14_);fill:#4E62A2;} .st169{clip-path:url(#SVGID_14_);fill:#4F62A1;} .st170{clip-path:url(#SVGID_14_);fill:#4F61A1;} .st171{clip-path:url(#SVGID_14_);fill:#5061A0;} .st172{clip-path:url(#SVGID_14_);fill:#5060A0;} .st173{clip-path:url(#SVGID_14_);fill:#51609F;} .st174{clip-path:url(#SVGID_14_);fill:#515F9F;} .st175{clip-path:url(#SVGID_14_);fill:#525F9E;} .st176{clip-path:url(#SVGID_14_);fill:#525E9E;} .st177{clip-path:url(#SVGID_14_);fill:#525E9D;} .st178{clip-path:url(#SVGID_14_);fill:#535D9D;} .st179{clip-path:url(#SVGID_14_);fill:#535D9C;} .st180{clip-path:url(#SVGID_14_);fill:#545D9C;} .st181{clip-path:url(#SVGID_14_);fill:#545C9B;} .st182{clip-path:url(#SVGID_14_);fill:#555C9B;} .st183{clip-path:url(#SVGID_14_);fill:#555B9A;} .st184{clip-path:url(#SVGID_14_);fill:#565B9A;} .st185{clip-path:url(#SVGID_14_);fill:#565A99;} .st186{clip-path:url(#SVGID_14_);fill:#575A99;} .st187{clip-path:url(#SVGID_14_);fill:#575998;} .st188{clip-path:url(#SVGID_14_);fill:#585998;} .st189{clip-path:url(#SVGID_14_);fill:#595997;} .st190{clip-path:url(#SVGID_14_);fill:#5A5897;} .st191{clip-path:url(#SVGID_14_);fill:#5B5796;} .st192{clip-path:url(#SVGID_14_);fill:#5C5695;} .st193{clip-path:url(#SVGID_14_);fill:#5D5695;} .st194{clip-path:url(#SVGID_14_);fill:#5D5694;} .st195{clip-path:url(#SVGID_14_);fill:#4674B6;} .st196{clip-path:url(#SVGID_14_);fill:#4674B5;} .st197{clip-path:url(#SVGID_14_);fill:#4673B5;} .st198{clip-path:url(#SVGID_14_);fill:#4673B4;} .st199{clip-path:url(#SVGID_14_);fill:#4672B4;} .st200{clip-path:url(#SVGID_14_);fill:#4772B3;} .st201{clip-path:url(#SVGID_14_);fill:#4671B3;} .st202{clip-path:url(#SVGID_14_);fill:#4771B2;} .st203{clip-path:url(#SVGID_14_);fill:#4670B2;} .st204{clip-path:url(#SVGID_14_);fill:#4770B1;} .st205{clip-path:url(#SVGID_14_);fill:#476FB1;} .st206{clip-path:url(#SVGID_14_);fill:#476FB0;} .st207{clip-path:url(#SVGID_14_);fill:#476EB0;} .st208{clip-path:url(#SVGID_14_);fill:#476EAF;} .st209{clip-path:url(#SVGID_14_);fill:#476EAE;} .st210{clip-path:url(#SVGID_14_);fill:#476DAE;} .st211{clip-path:url(#SVGID_14_);fill:#5E5594;} .st212{clip-path:url(#SVGID_14_);fill:#5E5593;} .st213{clip-path:url(#SVGID_14_);fill:#5F5493;} .st214{clip-path:url(#SVGID_14_);fill:#605492;} .st215{clip-path:url(#SVGID_14_);fill:#605392;} .st216{clip-path:url(#SVGID_14_);fill:#615391;} .st217{clip-path:url(#SVGID_14_);fill:#615291;} .st218{clip-path:url(#SVGID_14_);fill:#625290;} .st219{clip-path:url(#SVGID_14_);fill:#635190;} .st220{clip-path:url(#SVGID_14_);fill:#63518F;}</style><path class="st0" d="M1 64.6c0-3.5 1.8-5.9 5.6-5.9s5.3 2.4 5.3 5.8c0 3.8-1.7 6.2-5.5 6.2-3.9 0-5.4-2.5-5.4-6.1zm8.8 0c0-2.9-1.1-4.2-3.2-4.2-2.2 0-3.5 1.3-3.5 4.2 0 3 1.1 4.4 3.3 4.4 2.3 0 3.4-1.3 3.4-4.4zM13.7 70.4v-1.2l1.4-.1c.3 0 .4-.1.4-.4v-7.9c0-.1 0-.2-.2-.2h-1.6v-1.5h1.8v-1.7c0-2.6 1.3-3.9 4.1-3.9 1.8 0 3.3.4 3.3 2.7H21c0-1.2-.5-1.4-1.5-1.4-1.7 0-2 .9-2 2.3v1.5c0 .2 0 .2.2.2h3.7v1.5h-3.8v8.1c0 .4 0 .4.4.4l2.6.2v1.2h-6.9zM35.4 70c-.9.4-2 .7-3.1.7-2.1 0-3.1-1-3.1-3v-7c0-.1 0-.2-.2-.2h-1.6v-1.3c1.7-.2 2.2-.9 2.5-3.2h1.3v2.7c0 .1 0 .2.2.2h3.3v1.5h-3.5V67c0 1.4.3 1.9 1.6 1.9.7 0 1.5-.2 2.1-.4l.5 1.5zM44.4 70.4v-1.2l1.1-.1c.3 0 .4-.1.4-.4v-5.2c0-1.7-.3-3-1.9-3-1.3 0-2.7.8-3.5 1.5v6.7c0 .4 0 .4.4.4l1.3.2v1.2H37v-1.2l1.1-.1c.3 0 .4-.1.4-.4v-13c0-.2-.1-.4-.3-.5l-1.3-.4.2-1.2h3.4v6.6c1-.7 2.3-1.5 4-1.5 2.4 0 3.4 1.5 3.4 4.1v5.8c0 .4 0 .4.4.4l1.3.2v1.2h-5.2zM60.4 69.6c-1.1.6-2.5 1-4.1 1-4 0-5.4-2.7-5.4-6 0-4.1 2.3-6 5.1-6 2.7 0 4.6 1.5 4.6 5.3V65h-7.5c.1 2.3 1 3.8 3.4 3.8 1.3 0 2-.2 3.2-.8l.7 1.6zm-1.7-6c0-2.5-1.2-3.3-2.6-3.3-1.5 0-2.7.8-2.9 3.3h5.5zM80.5 70.4L77.7 60l-3 10.4h-2.5l-3.7-14.3c-.1-.3-.2-.4-.4-.4l-1.3-.2.2-1.2h5.6v1.2l-2 .2 3 12.5 3-10.7h2.3l3 10.9L85 55.7l-2-.2.2-1.2h5.2v1.2l-1.2.2c-.3 0-.4.1-.5.4l-3.6 14.3h-2.6zM88.2 64.6c0-3.5 1.8-5.9 5.6-5.9s5.3 2.4 5.3 5.8c0 3.8-1.7 6.2-5.5 6.2-3.9 0-5.4-2.5-5.4-6.1zm8.8 0c0-2.9-1.1-4.2-3.2-4.2-2.2 0-3.5 1.3-3.5 4.2 0 3 1.1 4.4 3.3 4.4 2.2 0 3.4-1.3 3.4-4.4zM100.9 70.4v-1.2l1.1-.2c.3 0 .4-.1.4-.4V61c0-.2-.1-.4-.3-.5l-1.3-.4.2-1.2h2.9l.2 1.5h.1c.7-.8 1.8-1.8 3.3-1.8.5 0 1.2.1 1.6.2v3.4l-1.6-.1-.3-1.5c0-.2-.1-.2-.3-.2-1 0-2.1.9-2.7 1.4v6.7c0 .4 0 .4.4.4l2.1.2v1.2h-5.8zM110.2 70.4v-1.2l1.4-.1c.3 0 .4-.1.4-.4v-13c0-.2-.1-.4-.3-.5l-1.3-.4.2-1.2h3.5v15c0 .4 0 .4.4.4l1.3.2v1.2h-5.6zM125.6 70.4l-.2-1.5h-.1c-1 1-2.2 1.8-3.9 1.8-2.5 0-4.2-1.7-4.2-5.8 0-4.4 2-6.2 4.7-6.2 1.3 0 2.5.4 3.4 1.1v-4.2c0-.2-.1-.4-.3-.4l-1.3-.4.2-1.2h3.4v15c0 .4 0 .4.4.4l1.1.2v1.2h-3.2zm-.4-8.8c-.7-.6-1.9-1.2-3.1-1.2-2.1 0-2.9 1.8-2.9 4.5 0 3.1 1 4.1 2.6 4.1 1.3 0 2.4-.9 3.4-1.9v-5.5z"/><defs><path id="SVGID_1_" d="M48.4 48v-3.5l3.2-.4c.9-.1 1-.3 1-1.3V21.2c0-.7-.2-1.1-.8-1.3l-3.6-1.2.6-3.4h8.4l.6 4.4.2.1c2.1-2.4 5.2-5.1 9.6-5.1 1.5 0 3.4.3 4.6.6v9.6l-4.5-.2-.8-4.4c-.1-.5-.2-.6-.8-.6-2.9 0-6.1 2.6-7.6 4v19.2c0 1 .1 1.2 1 1.3l5.9.5V48h-17z"/></defs><clipPath id="SVGID_2_"><use xlink:href="#SVGID_1_" overflow="visible"/></clipPath><path class="st2" d="M48 15h1v33h-1z"/><path class="st4" d="M49 15h1v33h-1z"/><path class="st5" d="M50 15h1v33h-1z"/><path class="st6" d="M51 15h1v33h-1z"/><path class="st8" d="M52 15h1v33h-1z"/><path class="st9" d="M53 15h1v33h-1z"/><path class="st11" d="M54 15h1v33h-1z"/><path class="st13" d="M55 15h1v33h-1z"/><path class="st14" d="M56 15h1v33h-1z"/><path class="st15" d="M57 15h1v33h-1z"/><path class="st17" d="M58 15h1v33h-1z"/><path class="st18" d="M59 15h1v33h-1z"/><path class="st20" d="M60 15h1v33h-1z"/><path class="st21" d="M61 15h1v33h-1z"/><path class="st23" d="M62 15h1v33h-1z"/><path class="st25" d="M63 15h1v33h-1z"/><path class="st27" d="M64 15h1v33h-1z"/><path class="st28" d="M65 15h1v33h-1z"/><path class="st30" d="M66 15h1v33h-1z"/><path class="st32" d="M67 15h1v33h-1z"/><path class="st34" d="M68 15h1v33h-1z"/><path class="st36" d="M69 15h1v33h-1z"/><path class="st37" d="M70 15h1v33h-1z"/><path class="st39" d="M71 15h1v33h-1z"/><defs><path id="SVGID_3_" d="M75 48v-3.5l4.2-.4c.9-.1 1-.3 1-1.3V21.2c0-.7-.2-1.1-.8-1.3l-3.6-1.2.6-3.4H86v27.6c0 1 .1 1.1 1 1.3l4.1.4V48H75zm7.3-39.8c-2.6 0-4.1-1.5-4.1-4.1 0-2.6 1.5-4 4.1-4s4.1 1.5 4.1 4c0 2.6-1.5 4.1-4.1 4.1z"/></defs><clipPath id="SVGID_4_"><use xlink:href="#SVGID_3_" overflow="visible"/></clipPath><path class="st41" d="M78 0h1v8h-1z"/><path class="st42" d="M79 0h1v8h-1z"/><path class="st44" d="M80 0h1v8h-1z"/><path class="st46" d="M81 0h1v8h-1z"/><path class="st48" d="M82 0h1v8h-1z"/><path class="st50" d="M83 0h1v8h-1z"/><path class="st51" d="M84 0h1v8h-1z"/><path class="st53" d="M85 0h1v8h-1z"/><path class="st57" d="M75 15h1v33h-1z"/><path class="st59" d="M76 15h1v33h-1z"/><path class="st61" d="M77 15h1v33h-1z"/><path class="st41" d="M78 15h1v33h-1z"/><path class="st42" d="M79 15h1v33h-1z"/><path class="st44" d="M80 15h1v33h-1z"/><path class="st46" d="M81 15h1v33h-1z"/><path class="st48" d="M82 15h1v33h-1z"/><path class="st50" d="M83 15h1v33h-1z"/><path class="st51" d="M84 15h1v33h-1z"/><path class="st53" d="M85 15h1v33h-1z"/><path class="st55" d="M86 15h1v33h-1z"/><path class="st63" d="M87 15h1v33h-1z"/><path class="st65" d="M88 15h1v33h-1z"/><path class="st66" d="M89 15h1v33h-1z"/><path class="st67" d="M90 15h1v33h-1z"/><defs><path id="SVGID_5_" d="M106.4 48L95.6 20.4c-.3-.8-.6-.9-1.3-1.1l-2.7-.6.8-3.5h13.4v3.5l-4.4.5L110 43l8.7-23.8-4.3-.5.7-3.5h12.4v3.5l-2.1.4c-.9.2-1.3.3-1.6 1.1L113 48h-6.6z"/></defs><clipPath id="SVGID_6_"><use xlink:href="#SVGID_5_" overflow="visible"/></clipPath><path class="st70" d="M92 15h1v33h-1z"/><path class="st71" d="M93 15h1v33h-1z"/><path class="st73" d="M94 15h1v33h-1z"/><path class="st75" d="M95 15h1v33h-1z"/><path class="st77" d="M96 15h1v33h-1z"/><path class="st78" d="M97 15h1v33h-1z"/><path class="st80" d="M98 15h1v33h-1z"/><path class="st82" d="M99 15h1v33h-1z"/><path class="st84" d="M100 15h1v33h-1z"/><path class="st86" d="M101 15h1v33h-1z"/><path class="st87" d="M102 15h1v33h-1z"/><path class="st89" d="M103 15h1v33h-1z"/><path class="st90" d="M104 15h1v33h-1z"/><path class="st92" d="M105 15h1v33h-1z"/><path class="st93" d="M106 15h1v33h-1zM107 15h1v33h-1z"/><path class="st94" d="M108 15h2v33h-2z"/><path class="st95" d="M110 15h2v33h-2z"/><path class="st96" d="M112 15h1v33h-1z"/><path class="st97" d="M113 15h2v33h-2z"/><path class="st98" d="M115 15h2v33h-2z"/><path class="st99" d="M117 15h1v33h-1z"/><path class="st100" d="M118 15h2v33h-2z"/><path class="st101" d="M120 15h2v33h-2z"/><path class="st102" d="M122 15h2v33h-2z"/><path class="st103" d="M124 15h1v33h-1z"/><path class="st104" d="M125 15h2v33h-2z"/><defs><path id="SVGID_7_" d="M156.1 45.9c-3.2 1.8-7 2.9-11.6 2.9-11.6 0-15.3-7.6-15.3-17.1 0-11.7 6.5-17.1 14.5-17.1 7.8 0 13.1 4.2 13.1 15.3 0 .8-.1 2.1-.1 3.2h-21.4c.2 6.4 2.8 10.8 9.8 10.8 3.6 0 5.8-.6 9.2-2.3l1.8 4.3zm-5-17.3c-.1-7.3-3.4-9.4-7.3-9.4-4.3 0-7.8 2.3-8.4 9.4h15.7z"/></defs><clipPath id="SVGID_8_"><use xlink:href="#SVGID_7_" overflow="visible"/></clipPath><path class="st106" d="M135 19h1v10h-1z"/><path class="st107" d="M136 19h2v10h-2z"/><path class="st108" d="M138 19h1v10h-1z"/><path class="st109" d="M139 19h2v10h-2z"/><path class="st110" d="M141 19h2v10h-2z"/><path class="st111" d="M143 19h1v10h-1z"/><path class="st112" d="M144 19h2v10h-2z"/><path class="st113" d="M146 19h2v10h-2z"/><path class="st114" d="M148 19h2v10h-2z"/><path class="st115" d="M150 19h1v10h-1z"/><path class="st116" d="M129 15h2v34h-2z"/><path class="st117" d="M131 15h1v34h-1z"/><path class="st118" d="M132 15h2v34h-2z"/><path class="st106" d="M134 15h2v34h-2z"/><path class="st107" d="M136 15h2v34h-2z"/><path class="st108" d="M138 15h1v34h-1z"/><path class="st109" d="M139 15h2v34h-2z"/><path class="st110" d="M141 15h2v34h-2z"/><path class="st111" d="M143 15h1v34h-1z"/><path class="st112" d="M144 15h2v34h-2z"/><path class="st113" d="M146 15h2v34h-2z"/><path class="st114" d="M148 15h2v34h-2z"/><path class="st115" d="M150 15h1v34h-1z"/><path class="st119" d="M151 15h2v34h-2z"/><path class="st120" d="M153 15h2v34h-2z"/><path class="st121" d="M155 15h1v34h-1z"/><path class="st122" d="M156 15h1v34h-1z"/><defs><path id="SVGID_9_" d="M161.9 48v-3.5l3.2-.4c.9-.1 1-.3 1-1.3V21.2c0-.7-.2-1.1-.8-1.3l-3.6-1.2.6-3.4h8.4l.6 4.4.2.1c2.1-2.4 5.2-5.1 9.6-5.1 1.5 0 3.4.3 4.6.6v9.6l-4.5-.2-.8-4.4c-.1-.5-.2-.6-.8-.6-2.9 0-6.1 2.6-7.6 4v19.2c0 1 .1 1.2 1 1.3l5.9.5V48h-17z"/></defs><clipPath id="SVGID_10_"><use xlink:href="#SVGID_9_" overflow="visible"/></clipPath><path class="st123" d="M162 15h1v33h-1z"/><path class="st124" d="M163 15h2v33h-2z"/><path class="st125" d="M165 15h2v33h-2z"/><path class="st126" d="M167 15h1v33h-1z"/><path class="st127" d="M168 15h2v33h-2z"/><path class="st128" d="M170 15h2v33h-2z"/><path class="st129" d="M172 15h1v33h-1z"/><path class="st130" d="M173 15h2v33h-2z"/><path class="st131" d="M175 15h2v33h-2z"/><path class="st132" d="M177 15h1v33h-1z"/><path class="st133" d="M178 15h2v33h-2zM180 15h2v33h-2z"/><path class="st134" d="M182 15h2v33h-2z"/><path class="st135" d="M184 15h1v33h-1z"/><path class="st136" d="M185 15h1v33h-1z"/><defs><path id="SVGID_11_" d="M208.3 24.4l-.8-4c-.1-.4-.1-.7-.6-.8-.9-.3-2.8-.7-5-.7-4.7 0-6.8 2-6.8 4.8 0 3.6 3.8 4.4 8 5.5 5 1.3 10.4 2.8 10.4 9.7 0 7.4-6.2 10-13 10-5.2 0-10.4-1.5-11.5-2.2v-8.5l4.3.3.8 4.4c.1.4.2.7.8.9.8.3 3.1 1 6.3 1 4.3 0 7-1.6 7-5 0-3.8-3.6-4.7-7.7-5.7-5-1.1-10.6-2.4-10.6-9.4 0-7.3 6.1-10 12.7-10 4.6 0 8.7 1.2 10.1 1.8v8.2l-4.4-.3z"/></defs><clipPath id="SVGID_12_"><use xlink:href="#SVGID_11_" overflow="visible"/></clipPath><path class="st137" d="M189 15h2v34h-2z"/><path class="st138" d="M191 15h1v34h-1z"/><path class="st139" d="M192 15h2v34h-2z"/><path class="st140" d="M194 15h2v34h-2z"/><path class="st141" d="M196 15h1v34h-1z"/><path class="st142" d="M197 15h2v34h-2z"/><path class="st143" d="M199 15h2v34h-2z"/><path class="st144" d="M201 15h2v34h-2z"/><path class="st145" d="M203 15h1v34h-1z"/><path class="st146" d="M204 15h2v34h-2z"/><path class="st147" d="M206 15h2v34h-2z"/><path class="st148" d="M208 15h1v34h-1z"/><path class="st149" d="M209 15h2v34h-2z"/><path class="st150" d="M211 15h2v34h-2zM213 15h1v34h-1z"/><defs><path id="SVGID_13_" d="M42.8 22.6c-1.2-2.1-1.6-3-1.7-3.8-.1-.8.2-.8.3-1.5.2-.7.2-1.9-.2-2.9S39.4 12 39.4 12s1.5.1 2.1-.8c.6-.9-2.9-5.4-7.1-7.3-3.5-1.5-8.5-1.9-12.1-2-.9-.1-1.8-.1-2.7-.1H.5v3.5l4 .4c.9.1 1 .3 1 1.3v35.8c0 1-.1 1.1-1 1.3l-4 .4V48h18c.6 0 6.8.1 9.7-.4 2.5-.4 6.3-.7 7.3-1.3 1.1-.6 1.4-1.2 2.1-1.5.7-.4 2.4-.4 3.2-1.1.9-.7 1.3-2.3.8-3.7-.5-1.5-1.7-1.7-1.7-1.7s.2-.5.4-.7c.2-.3 1-.6 1.1-1 .1-.4-.1-.8-.5-1.2-.4-.5-1.2-.7-1.2-.7s.8-.1 1.2-.3c.4-.2.7-.8.7-1.2 0-.4-.2-.7-.2-1.1-.1-.5-.3-2.2.6-2.5.9-.2 1.7.1 2.5-.3s.9-1.1.9-2.1c0-1.2-1.4-2.6-2.6-4.6zM37.4 29c-.9.2-1.5.1-1.5.1s-.2.8-.1 1.4c.1.6.2 1.5-.1 2-.3.5-.6.5-.6.5s.4.2.7.7c.3.5.3.8.2 1.1-.1.4-.5.5-.7.8-.1.3-.8.9-.8 1.3s.5 1.7.3 2.8c-.2 1.1-.8 1.6-1.6 2-.7.4-1.1.4-2.1.7-.3.1-5.9.8-5.9.8l-5.2.1c-.6 0-1.1.1-1.7.1h-7v-37H20s4 .1 5.1.3c1.4.2 4.2.6 6.3 2 1.6 1 2.5 2.6 2.8 3.4.3.9.6 2.9.5 4-.1 1.1-.5 2.5-.5 3.5s1.2 1.6 1.6 2c.4.4 1.3 2 1.9 2.7.6.7 1.8 1.4 1.7 2.8 0 1.2-1.1 1.8-2 1.9z"/></defs><clipPath id="SVGID_14_"><use xlink:href="#SVGID_13_" overflow="visible"/></clipPath><path class="st151" d="M11 6h1v37h-1z"/><path class="st152" d="M12 6h1v37h-1z"/><path class="st154" d="M13 6h1v37h-1z"/><path class="st155" d="M14 6h1v37h-1z"/><path class="st156" d="M15 6h1v37h-1z"/><path class="st158" d="M16 6h1v37h-1zM17 6h1v37h-1z"/><path class="st159" d="M18 6h1v37h-1z"/><path class="st161" d="M19 6h1v37h-1z"/><path class="st162" d="M20 6h1v37h-1z"/><path class="st164" d="M21 6h1v37h-1z"/><path class="st166" d="M22 6h1v37h-1z"/><path class="st167" d="M23 6h1v37h-1z"/><path class="st169" d="M24 6h1v37h-1z"/><path class="st171" d="M25 6h1v37h-1z"/><path class="st173" d="M26 6h1v37h-1z"/><path class="st175" d="M27 6h1v37h-1z"/><path class="st176" d="M28 6h1v37h-1z"/><path class="st178" d="M29 6h1v37h-1z"/><path class="st180" d="M30 6h1v37h-1z"/><path class="st182" d="M31 6h1v37h-1z"/><path class="st184" d="M32 6h1v37h-1z"/><path class="st186" d="M33 6h1v37h-1z"/><path class="st187" d="M34 6h1v37h-1z"/><path class="st189" d="M35 6h1v37h-1z"/><path class="st190" d="M36 6h1v37h-1z"/><path class="st191" d="M37 6h1v37h-1z"/><path class="st192" d="M38 6h1v37h-1z"/><path class="st193" d="M39 6h1v37h-1z"/><path class="st195" d="M0 2h2v46H0z"/><path class="st196" d="M2 2h1v46H2z"/><path class="st198" d="M3 2h1v46H3z"/><path class="st200" d="M4 2h1v46H4z"/><path class="st202" d="M5 2h1v46H5z"/><path class="st203" d="M6 2h1v46H6z"/><path class="st205" d="M7 2h1v46H7z"/><path class="st207" d="M8 2h1v46H8z"/><path class="st208" d="M9 2h1v46H9z"/><path class="st210" d="M10 2h1v46h-1z"/><path class="st151" d="M11 2h1v46h-1z"/><path class="st152" d="M12 2h1v46h-1z"/><path class="st154" d="M13 2h1v46h-1z"/><path class="st155" d="M14 2h1v46h-1z"/><path class="st156" d="M15 2h1v46h-1z"/><path class="st158" d="M16 2h1v46h-1zM17 2h1v46h-1z"/><path class="st159" d="M18 2h1v46h-1z"/><path class="st161" d="M19 2h1v46h-1z"/><path class="st162" d="M20 2h1v46h-1z"/><path class="st164" d="M21 2h1v46h-1z"/><path class="st166" d="M22 2h1v46h-1z"/><path class="st167" d="M23 2h1v46h-1z"/><path class="st169" d="M24 2h1v46h-1z"/><path class="st171" d="M25 2h1v46h-1z"/><path class="st173" d="M26 2h1v46h-1z"/><path class="st175" d="M27 2h1v46h-1z"/><path class="st176" d="M28 2h1v46h-1z"/><path class="st178" d="M29 2h1v46h-1z"/><path class="st180" d="M30 2h1v46h-1z"/><path class="st182" d="M31 2h1v46h-1z"/><path class="st184" d="M32 2h1v46h-1z"/><path class="st186" d="M33 2h1v46h-1z"/><path class="st187" d="M34 2h1v46h-1z"/><path class="st189" d="M35 2h1v46h-1z"/><path class="st190" d="M36 2h1v46h-1z"/><path class="st191" d="M37 2h1v46h-1z"/><path class="st192" d="M38 2h1v46h-1z"/><path class="st193" d="M39 2h1v46h-1z"/><path class="st211" d="M40 2h1v46h-1z"/><path class="st213" d="M41 2h1v46h-1z"/><path class="st215" d="M42 2h1v46h-1z"/><path class="st217" d="M43 2h1v46h-1z"/><path class="st219" d="M44 2h1v46h-1z"/></svg>