<svg xmlns="http://www.w3.org/2000/svg" viewBox="0 0 45 46.2" enable-background="new 0 0 45 46.2"><style type="text/css">.st0{fill:url(#SVGID_1_);}</style><linearGradient id="SVGID_1_" gradientUnits="userSpaceOnUse" x1="-9.101" y1="23.102" x2="73.337" y2="23.102"><stop offset="0" stop-color="#4674B6"/><stop offset=".5" stop-color="#B9225B"/><stop offset="1" stop-color="#D15A2F"/></linearGradient><path class="st0" d="M42.3 20.7c-1.2-2.1-1.6-3-1.7-3.8-.1-.8.2-.8.3-1.5.2-.7.2-1.9-.2-2.9s-1.8-2.4-1.8-2.4 1.5.1 2.1-.8c.7-.8-2.8-5.3-7-7.2C30.5.6 25.5.2 21.9.1 20.9 0 20 0 19.1 0H0v3.5L4 4c.9 0 1 .3 1 1.2V41c0 1-.1 1.1-1 1.3l-4 .4v3.4h18c.6 0 6.8.1 9.7-.4 2.5-.4 6.3-.7 7.3-1.3 1.1-.6 1.4-1.2 2.1-1.5.7-.4 2.4-.4 3.2-1.1.9-.7 1.3-2.3.8-3.7-.5-1.5-1.7-1.7-1.7-1.7s.2-.5.4-.7c.2-.3 1-.6 1.1-1 .1-.4-.1-.8-.5-1.2-.4-.5-1.2-.7-1.2-.7s.8-.1 1.2-.3c.4-.2.7-.8.7-1.2s-.2-.7-.2-1.1c-.1-.5-.3-2.2.6-2.5.9-.2 1.7.1 2.5-.3s.9-1.1.9-2.1c0-1.1-1.4-2.5-2.6-4.6zM37 27.2c-.9.2-1.5.1-1.5.1s-.2.8-.1 1.4c.1.6.2 1.5-.1 2s-.6.5-.6.5.4.2.7.7c.3.5.3.8.2 1.1-.1.4-.5.5-.7.8-.1.3-.8.9-.8 1.3s.5 1.7.3 2.8c-.2 1.1-.8 1.6-1.6 2-.7.4-1.1.4-2.1.7-.3.1-5.9.8-5.9.8l-5.2.1c-.6 0-1.1.1-1.7.1h-7v-37H19.6s4 .1 5.1.3c1.4.2 4.2.6 6.3 2 1.6 1 2.5 2.6 2.8 3.4.3.9.6 2.9.5 4-.1 1.1-.5 2.5-.5 3.5s1.2 1.6 1.6 2c.4.4 1.3 2 1.9 2.7.6.7 1.8 1.4 1.7 2.8-.1 1.2-1.2 1.7-2 1.9z"/></svg>