<?xml version="1.0" encoding="utf-8"?>
<!-- Generator: Adobe Illustrator 18.1.1, SVG Export Plug-In . SVG Version: 6.00 Build 0)  -->
<svg version="1.1" id="Слой_1" xmlns="http://www.w3.org/2000/svg" xmlns:xlink="http://www.w3.org/1999/xlink" x="0px" y="0px"
	 viewBox="0 0 262.4 23" style="enable-background:new 0 0 262.4 23;" xml:space="preserve">
<style type="text/css">
	.st0{opacity:0.25;}
	.st1{fill:#FFFFFF;}
</style>
<g class="st0">
	<polygon class="st1" points="149.1,23 146.9,23 144.2,22.1 142.8,21.4 140.5,21.3 138.8,20.9 137,20.7 134.8,20.8 132.6,19.8 
		131.6,18.2 130.9,16.9 130.2,16.1 128.3,14.9 127,14.2 124.7,13.5 123,12.4 121.5,12.5 119.4,12.3 114.9,12 113,12 110.4,12.7 
		108,13.1 106,13.1 101.8,12.6 99.4,12.7 97.8,13 95.7,13.1 92.9,13.5 90.9,13.3 88.8,12.8 87.1,12.5 84.3,12.2 82.4,11.8 
		77.1,12.4 75.5,12.7 73.9,12.8 71.9,13 69.6,12.8 68.2,12.4 67.3,12 65.9,11.9 64.7,11.4 64.2,11.2 60.9,11.2 59.5,11 58.5,11 
		57.3,11.3 56.2,12 55,12.7 53.4,12.2 51.7,12.2 50.7,12.3 49.7,12.7 48.2,13.7 46.9,14.3 45.2,14.9 43.7,15.1 42.3,16 40.8,16.6 
		39.1,17.6 37.2,18.4 34.1,19 32.7,19.1 31,19.1 29.4,19 28.3,19 27.1,19.4 25.2,19.6 24.1,19.1 23.2,19.3 21.5,19.8 19.9,20.1 
		18.2,19.4 17.8,19.2 16.8,19.6 15.5,20.3 13.8,21.4 11.9,22 8.9,22.5 7.1,22.1 6,20.8 5,20.3 5.9,18.6 7.2,19.3 8.1,20.3 9,20.5 
		11.5,20.1 13.1,19.6 14.4,18.7 16,17.8 18,17 19.2,17.7 20.1,18 21.1,17.9 22.7,17.3 24.4,17 25.5,17.6 26.8,17.4 28,17.1 29.4,17 
		31.1,17 32.6,17 33.9,17 36.7,16.4 38.2,15.8 39.9,14.9 41.5,14.2 43,13.2 44.9,13 46.2,12.5 47.3,12 48.8,11 50.4,10.3 52.6,10 
		53.9,10 54.7,10.5 55.2,10.2 56.7,9.4 58.4,9.1 59.6,8.9 61.1,9 64.6,9 65.5,9.4 66.4,9.9 67.7,10 68.9,10.5 70.1,10.9 71.9,11.1 
		73.7,10.8 75.3,10.7 76.8,10.4 82.5,9.8 84.6,10.2 87.4,10.5 89.3,10.9 91.3,11.4 92.8,11.6 95.6,11.1 97.6,11 99.2,10.8 
		101.9,10.5 106.2,11 107.9,11 110.1,10.6 112.9,10 114.9,10 121.4,10.4 123.5,10.4 125.6,11.7 127.8,12.4 129.3,13.2 131.6,14.7 
		132.6,15.9 133.3,17.2 134,18.3 135.2,18.9 137,18.8 139.2,19 140.8,19.3 143.2,19.5 145,20.3 147.2,21 148.6,21 149.7,20.3 
		150.7,18.9 151.7,17.6 152.7,16.5 153.2,15.6 153.5,14.1 154.2,13 154.9,13 155.3,12.2 156.8,12.4 157.8,12.1 160.6,10.4 
		162.7,10.8 164.7,11.4 165.3,11.8 166.6,11.5 170.3,11.1 171.7,10.4 173.8,9.6 176.1,9.4 178.2,9.9 180.3,10.7 181.9,11.2 
		183.9,11.9 186,13 187.7,13.7 189.4,14 191.8,13.9 193.4,13.8 195.2,13.1 197.3,13.1 199.2,13.2 200.2,13.2 201.8,12.5 203.5,11.6 
		204.9,11.9 207.6,12.6 210.2,12 211.4,12.3 212.1,12.1 213.3,11.4 214.7,11 215.9,9.9 219.3,7.9 221.4,7 224,7.3 225.1,7.1 
		226.6,6.3 227.6,5.6 227.9,4.4 228.4,2.8 229.9,1.9 231.4,1.4 232.6,0 234.8,0 236.6,1.2 237.4,1.9 240.8,2.6 242.2,4.3 242.6,4.9 
		244,4.8 247.7,5.8 249.7,6.2 251.7,6.3 252.9,7.6 258,10.6 258.8,12.5 259.5,14.6 260,16 258.1,16.6 257.7,15.2 256.9,13.2 
		256.4,11.9 255.4,11.3 251.6,9 250.8,8.2 249.4,8.1 247.2,7.7 243.7,6.8 241.6,6.9 240.7,5.5 239.7,4.5 236.6,3.8 235.5,2.8 
		234.3,2 233.4,2 232.4,3.3 230.6,3.7 230.1,4.1 229.8,4.9 229.3,6.8 227.6,8 225.7,9 224.1,9.3 221.6,9 220.1,9.6 217,11.6 
		215.6,12.8 214,13.2 212.9,13.9 211.5,14.4 210.1,14 207.6,14.6 204.5,13.8 203.8,13.6 202.6,14.2 200.6,15 199.2,15 197.3,15 
		195.6,15 193.8,15.7 191.9,15.9 189.3,16 187,15.5 185.1,14.7 183.1,13.6 181.3,13.1 179.6,12.5 177.5,11.7 176,11.4 174.1,11.6 
		172.5,12.2 170.9,13.1 166.9,13.5 164.9,13.9 163.9,13.2 162.3,12.7 161,12.5 158.5,14 156.9,14.4 156.5,14.3 156.2,15 155.3,15 
		155,16.3 154.3,17.7 153.2,18.9 152.3,20.1 151.1,21.7 	"/>
</g>
<g>
	<path class="st1" d="M3,21c-1.7,0-3-1.4-3-3s1.4-3,3-3s3,1.4,3,3S4.7,21,3,21z M3,15.9c-1.1,0-2,0.9-2,2s0.9,2,2,2s2-0.9,2-2
		S4.1,15.9,3,15.9z"/>
</g>
<g>
	<path class="st1" d="M259.4,22c-1.7,0-3-1.4-3-3s1.4-3,3-3c1.7,0,3,1.4,3,3S261.1,22,259.4,22z M259.4,16.9c-1.1,0-2,0.9-2,2
		s0.9,2,2,2c1.1,0,2-0.9,2-2S260.5,16.9,259.4,16.9z"/>
</g>
<g>
	<g>
		<polygon class="st1" points="88.9,10.9 87.3,10.5 84.6,10.2 82.5,9.8 76.8,10.4 75.3,10.7 73.7,10.8 71.9,11.1 70.1,10.9 
			68.9,10.5 67.7,10 66.4,9.9 65.5,9.4 64.6,9 61.1,9 59.6,8.9 58.4,9.1 56.7,9.4 55.2,10.2 54.7,10.5 53.9,10 52.6,10 50.4,10.3 
			48.8,11 47.3,12 46.2,12.5 44.9,13 43,13.2 41.5,14.2 39.9,14.9 38.2,15.8 36.7,16.4 33.9,17 32.6,17 31.1,17 29.4,17 28,17.1 
			26.8,17.4 25.5,17.6 24.4,17 22.7,17.3 21.1,17.9 20.1,18 19.2,17.7 18,17 16,17.8 14.4,18.7 13.1,19.6 11.5,20.1 9,20.5 
			8.1,20.3 7.2,19.3 5.9,18.6 5,20.3 6,20.8 7.1,22.1 8.9,22.5 11.9,22 13.8,21.4 15.5,20.3 16.8,19.6 17.8,19.2 18.2,19.4 
			19.9,20.1 21.5,19.8 23.2,19.3 24.1,19.1 25.2,19.6 27.1,19.4 28.3,19 29.4,19 31,19.1 32.7,19.1 34.1,19 37.2,18.4 39.1,17.6 
			40.8,16.6 42.3,16 43.7,15.1 45.2,14.9 46.9,14.3 48.2,13.7 49.7,12.7 50.7,12.3 51.7,12.2 53.4,12.2 55,12.7 56.2,12 57.3,11.3 
			58.5,11 59.5,11 60.9,11.2 64.2,11.2 64.7,11.4 65.9,11.9 67.3,12 68.2,12.4 69.6,12.8 71.9,13 73.9,12.8 75.5,12.7 77.1,12.4 
			82.4,11.8 84.3,12.2 87.1,12.5 88.8,12.8 88.9,12.9 		"/>
	</g>
	<g>
		<polygon class="st1" points="259.5,14.6 258.8,12.5 258,10.6 252.9,7.6 251.7,6.3 249.7,6.2 247.7,5.8 244,4.8 242.6,4.9 
			242.2,4.3 240.8,2.6 237.4,1.9 236.6,1.2 234.8,0 232.6,0 231.4,1.4 229.9,1.9 228.4,2.8 227.9,4.4 227.6,5.6 226.6,6.3 
			225.1,7.1 224,7.3 221.4,7 219.3,7.9 215.9,9.9 214.7,11 213.3,11.4 212.1,12.1 211.4,12.3 210.2,12 207.6,12.6 204.9,11.9 
			203.5,11.6 201.8,12.5 200.2,13.2 199.2,13.2 197.3,13.1 195.2,13.1 193.4,13.8 191.8,13.9 189.4,14 187.7,13.7 186,13 
			183.9,11.9 181.9,11.2 180.3,10.7 178.2,9.9 176.1,9.4 173.8,9.6 171.7,10.4 170.3,11.1 166.6,11.5 165.3,11.8 164.7,11.4 
			162.9,10.8 162.9,10.8 162.9,12.8 164,13.2 165,13.9 166.9,13.5 170.9,13.1 172.5,12.2 174.1,11.6 176,11.4 177.5,11.7 
			179.6,12.5 181.3,13.1 183.1,13.6 185.1,14.7 187,15.5 189.3,16 191.9,15.9 193.8,15.7 195.6,15 197.3,15 199.2,15 200.6,15 
			202.6,14.2 203.8,13.6 204.5,13.8 207.6,14.6 210.1,14 211.5,14.4 212.9,13.9 214,13.2 215.6,12.8 217,11.6 220.1,9.6 221.6,9 
			224.1,9.3 225.7,9 227.6,8 229.3,6.8 229.8,4.9 230.1,4.1 230.6,3.7 232.4,3.3 233.4,2 234.3,2 235.5,2.8 236.6,3.8 239.7,4.5 
			240.7,5.5 241.6,6.9 243.7,6.8 247.2,7.7 249.4,8.1 250.8,8.2 251.6,9 255.4,11.3 256.4,11.9 256.9,13.2 257.7,15.2 258.1,16.6 
			260,16 		"/>
	</g>
</g>
<g>
	<path class="st1" d="M97.3,7L97.3,7l-2.4,1.3l-0.4-1.4l3-1.6h1.6V19h-1.8V7z"/>
	<path class="st1" d="M104.5,16.8c0.5,0.3,1.7,0.9,3,0.9c2.4,0,3.1-1.5,3.1-2.6c0-1.9-1.7-2.7-3.5-2.7h-1v-1.4h1c1.3,0,3-0.7,3-2.3
		c0-1.1-0.7-2.1-2.4-2.1c-1.1,0-2.1,0.5-2.7,0.9l-0.5-1.3c0.7-0.5,2.1-1,3.6-1c2.7,0,3.9,1.6,3.9,3.3c0,1.4-0.8,2.6-2.5,3.2v0
		c1.7,0.3,3,1.6,3,3.5c0,2.2-1.7,4.1-5,4.1c-1.5,0-2.9-0.5-3.5-0.9L104.5,16.8z"/>
	<path class="st1" d="M123.9,12c0,4.6-1.7,7.2-4.7,7.2c-2.7,0-4.5-2.5-4.5-7c0-4.6,2-7.1,4.7-7.1C122.3,5.1,123.9,7.7,123.9,12z
		 M116.5,12.2c0,3.5,1.1,5.6,2.8,5.6c1.9,0,2.8-2.2,2.8-5.7c0-3.4-0.9-5.6-2.8-5.6C117.7,6.5,116.5,8.5,116.5,12.2z"/>
	<path class="st1" d="M132.5,8.8v4.4h0.4l3.8-4.4h2.2l-4.4,4.6c1.6,0.2,2.6,1.3,3.4,3.1c0.3,0.7,0.6,1.7,1.1,2.5h-1.9
		c-0.3-0.4-0.6-1.2-0.9-2.1c-0.7-1.6-1.6-2.4-3.4-2.4h-0.4V19h-1.8V8.8H132.5z"/>
	<path class="st1" d="M140.8,8.8h2.3l1.8,5.1c0.3,0.8,0.7,2,0.9,2.8h0c0.2-0.8,0.8-2.4,1.2-3.5l1.6-4.4h2.3l0.7,10.2H150l-0.2-4.9
		c-0.1-1.1-0.1-2.4-0.2-3.6h-0.1c-0.3,0.9-0.5,1.7-1.1,3.3l-2,5.1h-1.3l-1.8-5c-0.3-1-0.8-2.4-1-3.4h-0.1c0,1.2-0.1,2.5-0.2,3.7
		l-0.3,4.8H140L140.8,8.8z"/>
</g>
</svg>
