<?xml version="1.0" encoding="utf-8"?>
<!-- Generator: Adobe Illustrator 18.1.1, SVG Export Plug-In . SVG Version: 6.00 Build 0)  -->
<svg version="1.1" id="Слой_1" xmlns="http://www.w3.org/2000/svg" xmlns:xlink="http://www.w3.org/1999/xlink" x="0px" y="0px"
	 viewBox="0 0 120.1 27.6" style="enable-background:new 0 0 120.1 27.6;" xml:space="preserve">
<style type="text/css">
	.st0{fill:#481273;}
</style>
<g>
	<circle class="st0" cx="0.5" cy="27.1" r="0.5"/>
	<path class="st0" d="M21.2,11.3c-2.4,0-4.6,1.5-5.4,3.7c-0.8-2.2-3-3.7-5.4-3.7c-2.1,0-4,1.2-5,3v-2.6c0-0.2-0.2-0.3-0.3-0.3
		c-0.2,0-0.3,0.2-0.3,0.3v15.6c0,0.2,0.2,0.3,0.3,0.3c0.2,0,0.3-0.2,0.3-0.3V17c0-2.8,2.3-5,5-5c2.8,0,5,2.2,5,5v10.2
		c0,0.2,0.2,0.3,0.3,0.3c0.2,0,0.3-0.2,0.3-0.3V17c0-2.8,2.3-5,5-5c2.8,0,5,2.2,5,5v10.2c0,0.2,0.2,0.3,0.3,0.3
		c0.2,0,0.3-0.2,0.3-0.3V16.8c0,0,0,0,0-0.1C26.8,13.7,24.3,11.3,21.2,11.3z"/>
	<path class="st0" d="M44.5,11.3c-0.2,0-0.3,0.2-0.3,0.3v4.5c-1.3-2.9-4.2-4.9-7.5-4.9c-4.5,0-8.2,3.7-8.2,8.1
		c0,4.5,3.7,8.1,8.2,8.1c3.3,0,6.2-1.9,7.5-4.9v4.5c0,0.2,0.2,0.3,0.3,0.3c0.2,0,0.3-0.2,0.3-0.3V11.7
		C44.9,11.5,44.7,11.3,44.5,11.3z M36.7,26.9c-4.1,0-7.5-3.3-7.5-7.5c0-4.1,3.4-7.5,7.5-7.5c4.1,0,7.5,3.3,7.5,7.5
		C44.2,23.6,40.8,26.9,36.7,26.9z"/>
	<path class="st0" d="M101,19.5c0,4.1-3.4,7.5-7.5,7.5c-4.1,0-7.5-3.3-7.5-7.5V0.3C86,0.2,85.9,0,85.7,0c-0.2,0-0.3,0.2-0.3,0.3
		l0,19.2c0.1,4.4,3.7,8,8.2,8c4.5,0,8.2-3.7,8.2-8.1v-0.1H101V19.5z"/>
	<path class="st0" d="M117.6,24.4c-1.4,1.6-3.5,2.5-5.6,2.5c-4,0-7.3-3.1-7.5-7.1h15.6l0-0.7h0c-0.2-4.4-3.7-7.8-8.2-7.8
		c-4.4,0-8,3.4-8.2,7.8h0l0,0.7h0c0.2,4.4,3.7,7.8,8.2,7.8c2.5,0,4.8-1.1,6.4-3.1l0.2-0.2L117.6,24.4L117.6,24.4z M112,12
		c4,0,7.3,3.1,7.5,7.1h-14.9C104.7,15.1,107.9,12,112,12z"/>
	<path class="st0" d="M74.9,11.3c-3.3,0-6.2,1.9-7.5,4.9V0.3c0-0.2-0.2-0.3-0.3-0.3c-0.2,0-0.3,0.2-0.3,0.3v26.9
		c0,0.2,0.2,0.3,0.3,0.3c0.2,0,0.3-0.2,0.3-0.3v-4.5c1.3,2.9,4.2,4.9,7.5,4.9c4.5,0,8.2-3.7,8.2-8.1C83,15,79.4,11.3,74.9,11.3z
		 M74.9,26.9c-4.1,0-7.5-3.3-7.5-7.5c0-4.1,3.4-7.5,7.5-7.5c4.1,0,7.5,3.3,7.5,7.5C82.4,23.6,79,26.9,74.9,26.9z"/>
	<path class="st0" d="M56,11.3c-3.3,0-6.2,1.9-7.5,4.9v-4.5c0-0.2-0.2-0.3-0.3-0.3c-0.2,0-0.3,0.2-0.3,0.3v15.6
		c0,0.2,0.2,0.3,0.3,0.3c0.2,0,0.3-0.2,0.3-0.3v-7.8c0-4.1,3.4-7.5,7.5-7.5c4.1,0,7.5,3.3,7.5,7.5v0.1H64l0.1,0v-0.1
		C64.2,15,60.5,11.3,56,11.3z"/>
</g>
</svg>
